<svg width="28" height="28" viewBox="0 0 28 28" fill="none" xmlns="http://www.w3.org/2000/svg">
<path d="M1.90909 24.5051H6.36364V13.6869L0 8.91422V22.596C0 23.6508 0.854318 24.5051 1.90909 24.5051Z" fill="#4285F4"/>
<path d="M21.6365 24.5051H26.091C27.1458 24.5051 28.0001 23.6508 28.0001 22.596V8.91422L21.6365 13.6869V24.5051Z" fill="#34A853"/>
<path d="M21.6365 5.41424V13.687L28.0001 8.91424V6.36878C28.0001 4.00946 25.3067 2.66196 23.4183 4.07787L21.6365 5.41424Z" fill="#FBBC04"/>
<path fill-rule="evenodd" clip-rule="evenodd" d="M6.36353 13.6869V5.41422L13.9999 11.1415L21.6363 5.41422V13.6869L13.9999 19.4142L6.36353 13.6869Z" fill="#EA4335"/>
<path d="M0 6.36878V8.91424L6.36364 13.687V5.41424L4.58182 4.07787C2.69341 2.66196 0 4.00946 0 6.36878Z" fill="#C5221F"/>
</svg>
